<svg version="1.1" xmlns="http://www.w3.org/2000/svg" viewBox="0 0 806.9377587019626 421.07079502886654" width="2420.813276105888" height="1263.2123850865996">
  <!-- svg-source:excalidraw -->
  
  <defs>
    <style class="style-fonts">
      @font-face {
        font-family: "Virgil";
        src: url("https://excalidraw.com/Virgil.woff2");
      }
      @font-face {
        font-family: "Cascadia";
        src: url("https://excalidraw.com/Cascadia.woff2");
      }
      @font-face {
        font-family: "Assistant";
        src: url("https://excalidraw.com/Assistant-Regular.woff2");
      }
    </style>
    
  </defs>
  <rect x="0" y="0" width="806.9377587019626" height="421.07079502886654" fill="#ffffff"></rect><g stroke-linecap="round" transform="translate(85.07684423697083 150.4208372978119) rotate(0 16 80.03958135109428)"><path d="M0 0 C0 0, 0 0, 0 0 M0 0 C0 0, 0 0, 0 0 M-0.26 6.4 C1.77 5.09, 3.24 3.24, 4.99 0.36 M-0.26 6.4 C1.41 4.36, 2.77 2.76, 4.99 0.36 M0.13 12.04 C5.77 6.94, 9.24 3.34, 10.63 -0.03 M0.13 12.04 C2.65 9.69, 3.59 6.89, 10.63 -0.03 M-0.13 18.44 C5.22 13.11, 9.72 8.48, 15.62 0.33 M-0.13 18.44 C5.08 12.57, 11.97 5.05, 15.62 0.33 M0.27 24.08 C8.47 14.97, 15.44 4.75, 21.26 -0.07 M0.27 24.08 C5.37 17.83, 10.87 12.15, 21.26 -0.07 M0 30.48 C6.24 22.94, 11.74 17.92, 26.25 0.29 M0 30.48 C8.41 20.6, 15.41 10.87, 26.25 0.29 M-0.26 36.88 C9.96 26.73, 15.27 17.48, 31.89 -0.1 M-0.26 36.88 C11.33 24.24, 20.98 10.96, 31.89 -0.1 M0.14 42.52 C8.58 31.12, 21.98 18.75, 32.94 4.78 M0.14 42.52 C10.44 31.7, 19.61 21.64, 32.94 4.78 M-0.12 48.92 C6.5 40.68, 14.83 30.66, 32.68 11.18 M-0.12 48.92 C8.01 40.28, 14.91 30.28, 32.68 11.18 M0.27 54.56 C9.75 43.64, 15.58 33.13, 32.42 17.58 M0.27 54.56 C8.48 46.5, 15.11 36.75, 32.42 17.58 M0.01 60.96 C14.69 46.08, 27.4 32.04, 32.81 23.22 M0.01 60.96 C8.08 51.97, 15.53 43.8, 32.81 23.22 M-0.25 67.36 C12 54.98, 21.49 39.86, 32.55 29.62 M-0.25 67.36 C11.83 53.97, 23.29 41.54, 32.55 29.62 M0.14 73 C10.91 60.18, 25.57 45.14, 32.95 35.26 M0.14 73 C13.02 57.49, 24.28 43.36, 32.95 35.26 M-0.12 79.4 C8.84 68.53, 19.95 53.25, 32.68 41.66 M-0.12 79.4 C6.94 69.9, 15.79 62.33, 32.68 41.66 M0.28 85.04 C11.57 71.11, 24.16 59.15, 32.42 48.06 M0.28 85.04 C12.36 71.16, 26.03 56.97, 32.42 48.06 M0.01 91.44 C11.25 81.2, 18.13 69.97, 32.82 53.7 M0.01 91.44 C10.41 78.44, 22.96 65.15, 32.82 53.7 M-0.25 97.84 C6.79 87.5, 14.51 78.64, 32.56 60.1 M-0.25 97.84 C11.74 85.22, 22.36 72.28, 32.56 60.1 M0.15 103.48 C9.84 92.54, 22.3 78.26, 32.95 65.74 M0.15 103.48 C11.11 92.32, 20.76 81.1, 32.95 65.74 M-0.11 109.88 C7.6 100.02, 15.4 89.78, 32.69 72.14 M-0.11 109.88 C6.6 100.22, 15.54 92.89, 32.69 72.14 M0.28 115.52 C12.58 104.23, 23.5 89.41, 32.43 78.54 M0.28 115.52 C7.18 107.67, 13.12 101.93, 32.43 78.54 M0.02 121.92 C10.2 109.32, 21.58 99.63, 32.82 84.18 M0.02 121.92 C11.93 108.74, 23.95 94.19, 32.82 84.18 M-0.24 128.32 C9.34 120.12, 15.23 108.61, 32.56 90.58 M-0.24 128.32 C10.71 115.55, 20.71 104.34, 32.56 90.58 M0.15 133.96 C11.24 122.68, 22.92 111.07, 32.96 96.22 M0.15 133.96 C12.52 119.64, 24.33 106.68, 32.96 96.22 M-0.11 140.36 C10.07 130.85, 18.47 118.98, 32.69 102.62 M-0.11 140.36 C11.81 125.26, 25.47 111, 32.69 102.62 M0.29 146 C10.46 137.28, 19.13 126.08, 32.43 109.02 M0.29 146 C6.3 139.65, 13.91 131.74, 32.43 109.02 M0.02 152.4 C12.24 140.94, 23.71 124.76, 32.83 114.66 M0.02 152.4 C12.21 139.23, 23.78 125.71, 32.83 114.66 M-0.24 158.8 C9.48 144.45, 22.01 133.28, 32.57 121.06 M-0.24 158.8 C10.58 145.71, 22.01 133.67, 32.57 121.06 M3.44 160.66 C11.98 149.27, 26.31 134.88, 32.96 126.7 M3.44 160.66 C13.35 148.34, 24.66 134.93, 32.96 126.7 M8.42 161.02 C17.09 150.9, 24.26 141.44, 32.7 133.1 M8.42 161.02 C17.7 150.22, 25.19 140.91, 32.7 133.1 M14.07 160.63 C21.31 154, 24 146.41, 32.44 139.5 M14.07 160.63 C18.63 156.02, 21.46 150.85, 32.44 139.5 M19.05 160.99 C24.18 155.75, 28.66 149.63, 32.83 145.14 M19.05 160.99 C22.8 157.31, 25.27 154.28, 32.83 145.14 M24.7 160.6 C26.34 156.81, 29.29 153.92, 32.57 151.54 M24.7 160.6 C26.87 158.54, 29.69 155.19, 32.57 151.54 M29.68 160.96 C31.25 159.65, 32.04 158.62, 32.97 157.18 M29.68 160.96 C30.91 159.63, 32.03 158.32, 32.97 157.18 M-0.02 160.07 C-0.02 160.07, -0.02 160.07, -0.02 160.07 M-0.02 160.07 C-0.02 160.07, -0.02 160.07, -0.02 160.07 M6.38 160.33 C4.48 158.02, 1.94 156.25, 0.34 155.08 M6.38 160.33 C4.3 158.34, 2.65 156.86, 0.34 155.08 M12.02 159.93 C9.05 156.51, 5.68 153.4, -0.05 149.44 M12.02 159.93 C8.27 156.5, 5.26 154.78, -0.05 149.44 M18.42 160.19 C11.86 156.08, 5.92 149.02, 0.31 144.45 M18.42 160.19 C11.8 155.26, 5.39 147.5, 0.31 144.45 M24.07 159.8 C19.58 156.09, 12.09 151.58, -0.09 138.8 M24.07 159.8 C14.5 152.05, 6.32 144.13, -0.09 138.8 M30.46 160.06 C18.55 151.37, 5.46 139.1, 0.27 133.82 M30.46 160.06 C21.41 153.02, 12.45 145.24, 0.27 133.82 M32.33 156.39 C21.72 147.85, 10.42 137.55, -0.12 128.17 M32.33 156.39 C20.58 146.77, 9.74 135.25, -0.12 128.17 M31.94 150.74 C20.08 143.62, 9.95 133.39, 0.24 123.19 M31.94 150.74 C20.46 139.63, 8.92 130.89, 0.24 123.19 M32.3 145.76 C19.17 136.28, 10.12 128.05, -0.15 117.54 M32.3 145.76 C24.95 139.93, 17.68 132.78, -0.15 117.54 M31.9 140.11 C22.16 132.26, 14.81 123.55, 0.21 112.56 M31.9 140.11 C22.42 131.9, 11.68 122.66, 0.21 112.56 M32.26 135.13 C20.12 123.12, 7.69 113.16, -0.19 106.91 M32.26 135.13 C20.06 123.51, 6.87 112.76, -0.19 106.91 M31.87 129.48 C20.11 117.27, 5.21 105.65, 0.17 101.93 M31.87 129.48 C23.4 121.83, 14.96 113.98, 0.17 101.93 M32.23 124.5 C21.58 115.77, 10.78 106.39, -0.22 96.28 M32.23 124.5 C19.65 113.8, 9.81 103.94, -0.22 96.28 M31.83 118.85 C25.05 109.97, 15.05 105.53, 0.14 91.3 M31.83 118.85 C20 108.41, 8.02 97.9, 0.14 91.3 M32.19 113.87 C17.86 103.37, 6.42 93.6, -0.26 85.65 M32.19 113.87 C19.14 103.82, 6.07 92.29, -0.26 85.65 M31.8 108.22 C24.08 103.23, 14.12 93.92, 0.1 80.67 M31.8 108.22 C24.81 102.44, 17.23 96.02, 0.1 80.67 M32.16 103.23 C19.98 92.8, 9.36 84.19, -0.29 75.02 M32.16 103.23 C24.27 95.37, 13.87 88.83, -0.29 75.02 M31.77 97.59 C19.8 89.16, 9.72 77.25, 0.07 70.04 M31.77 97.59 C24.08 89.95, 15.4 83.36, 0.07 70.04 M32.13 92.6 C21.27 85, 12.18 74.57, -0.33 64.39 M32.13 92.6 C22.94 85.36, 13.42 75.82, -0.33 64.39 M31.73 86.96 C25.33 79.11, 13.66 73.56, 0.03 59.41 M31.73 86.96 C22.25 78.79, 14.62 71.51, 0.03 59.41 M32.09 81.97 C18.93 70.28, 7.91 62.68, -0.36 53.76 M32.09 81.97 C22.81 73.36, 13.04 64.51, -0.36 53.76 M31.7 76.33 C20.51 65.34, 8.42 57.21, 0 48.78 M31.7 76.33 C25.45 70.72, 18.81 66.21, 0 48.78 M32.06 71.34 C22.47 63.56, 13.15 53.18, 0.36 43.79 M32.06 71.34 C24.58 64.89, 17.08 57.6, 0.36 43.79 M31.66 65.7 C19.17 57.75, 9.12 47.57, -0.04 38.15 M31.66 65.7 C21.08 58.39, 12.56 49.29, -0.04 38.15 M32.02 60.71 C24.71 54.47, 14.58 45.68, 0.32 33.16 M32.02 60.71 C23.52 54.09, 16.75 47.31, 0.32 33.16 M31.63 55.07 C21.96 44.69, 10.33 36.91, -0.07 27.52 M31.63 55.07 C20.72 44.99, 11.8 37.85, -0.07 27.52 M31.99 50.08 C24.26 44.79, 14.06 36.82, 0.29 22.53 M31.99 50.08 C22.3 41.65, 14.62 34.02, 0.29 22.53 M32.35 45.1 C24 38.88, 20.58 32.59, -0.1 16.89 M32.35 45.1 C24.45 38.53, 18.53 32.41, -0.1 16.89 M31.95 39.45 C25 32.7, 18.9 27.6, 0.26 11.9 M31.95 39.45 C22.63 30.81, 11.34 21.4, 0.26 11.9 M32.31 34.47 C22.44 25.22, 11.45 16.87, -0.14 6.26 M32.31 34.47 C20.62 24.38, 8.86 14.39, -0.14 6.26 M31.92 28.82 C24.34 23.54, 16.06 16.81, 0.22 1.27 M31.92 28.82 C25.28 22.14, 17.92 15.46, 0.22 1.27 M32.28 23.84 C26.04 15.81, 17.82 11.56, 4.35 -0.44 M32.28 23.84 C26.69 18.85, 20.69 14.66, 4.35 -0.44 M31.88 18.19 C25.69 11, 18.5 6.76, 10.75 -0.18 M31.88 18.19 C26.08 13.21, 21.45 9.27, 10.75 -0.18 M32.24 13.21 C27.55 6.92, 20.01 3.28, 17.15 0.09 M32.24 13.21 C27.31 9.69, 20.86 4.23, 17.15 0.09 M31.85 7.56 C27.55 4.3, 24.96 2.29, 22.79 -0.31 M31.85 7.56 C29.8 5.32, 27.38 3.98, 22.79 -0.31 M32.21 2.58 C31.15 2.07, 30.29 1.17, 29.19 -0.05 M32.21 2.58 C31.47 1.71, 30.35 1.2, 29.19 -0.05" stroke="#a5d8ff" stroke-width="0.5" fill="none"></path><path d="M0 0 C10.93 -1.59, 17.72 0.6, 32 0 M0 0 C9.59 -0.07, 21.92 0.69, 32 0 M32 0 C30.25 52.34, 31.17 107.65, 32 160.08 M32 0 C32.31 34.48, 31.67 68.32, 32 160.08 M32 160.08 C20.62 160.57, 11.87 159.81, 0 160.08 M32 160.08 C23.36 159.36, 13.03 160.7, 0 160.08 M0 160.08 C-1.43 117.96, -0.23 78.08, 0 0 M0 160.08 C-0.82 121.83, -1.02 86.19, 0 0" stroke="#1e1e1e" stroke-width="1" fill="none"></path></g><g stroke-linecap="round" transform="translate(158.7048104402611 169.71412749762112) rotate(0 16 70.39293625118944)"><path d="M0 0 C0 0, 0 0, 0 0 M0 0 C0 0, 0 0, 0 0 M-0.26 6.4 C1.7 4.88, 2.64 2.7, 4.99 0.36 M-0.26 6.4 C1.35 4.4, 3.23 2.99, 4.99 0.36 M0.13 12.04 C4.18 9.12, 4.86 5.15, 10.63 -0.03 M0.13 12.04 C2.32 8.3, 5.86 5.92, 10.63 -0.03 M-0.13 18.44 C5.74 13.16, 10.16 9.43, 15.62 0.33 M-0.13 18.44 C6.28 11.78, 11.5 5.07, 15.62 0.33 M0.27 24.08 C7.71 13.57, 15.43 5.31, 21.26 -0.07 M0.27 24.08 C8.26 15.35, 15.84 5.46, 21.26 -0.07 M0 30.48 C9.64 20.55, 18.84 10.86, 26.25 0.29 M0 30.48 C9.53 18.06, 20.21 6.84, 26.25 0.29 M-0.26 36.88 C5.72 28.05, 16.66 18.57, 31.89 -0.1 M-0.26 36.88 C8.47 25.16, 18.99 13.99, 31.89 -0.1 M0.14 42.52 C14.35 27.86, 24.88 12.03, 32.94 4.78 M0.14 42.52 C10.97 30.96, 19.71 19.22, 32.94 4.78 M-0.12 48.92 C10.08 36.36, 18.65 25.4, 32.68 11.18 M-0.12 48.92 C11.6 33.92, 24.44 20.66, 32.68 11.18 M0.27 54.56 C7.4 42.7, 16.53 33.08, 32.42 17.58 M0.27 54.56 C9.57 42.48, 20.21 32.12, 32.42 17.58 M0.01 60.96 C8.61 53.03, 14.21 44.65, 32.81 23.22 M0.01 60.96 C6.43 54.17, 13.58 46.62, 32.81 23.22 M-0.25 67.36 C5.62 57.86, 13.91 50.84, 32.55 29.62 M-0.25 67.36 C8.71 57.88, 17.38 48.19, 32.55 29.62 M0.14 73 C10.99 62.14, 21.53 51.22, 32.95 35.26 M0.14 73 C11.35 58.69, 24.14 46.08, 32.95 35.26 M-0.12 79.4 C10.2 64.83, 20.99 53.74, 32.68 41.66 M-0.12 79.4 C7.94 71.7, 16.33 62.09, 32.68 41.66 M0.28 85.04 C8.07 77.75, 18.12 66.15, 32.42 48.06 M0.28 85.04 C10.3 74.98, 19.36 63.86, 32.42 48.06 M0.01 91.44 C7.16 82.28, 18.53 72.1, 32.82 53.7 M0.01 91.44 C13.29 77.03, 24.42 62.51, 32.82 53.7 M-0.25 97.84 C11.01 83.14, 25.8 69.07, 32.56 60.1 M-0.25 97.84 C6.58 89.81, 14.56 81.2, 32.56 60.1 M0.15 103.48 C9.74 92.72, 16.94 82.65, 32.95 65.74 M0.15 103.48 C12.27 90.28, 23.59 74.76, 32.95 65.74 M-0.11 109.88 C9.13 96.95, 19.56 87.39, 32.69 72.14 M-0.11 109.88 C7.99 102.3, 15.59 92.68, 32.69 72.14 M0.28 115.52 C11.9 102.25, 19.49 90.38, 32.43 78.54 M0.28 115.52 C6.71 109.01, 13.56 100.31, 32.43 78.54 M0.02 121.92 C8.52 114.52, 15.07 106.58, 32.82 84.18 M0.02 121.92 C12.67 107.24, 25.1 91.87, 32.82 84.18 M-0.24 128.32 C4.97 119.52, 13.5 113.89, 32.56 90.58 M-0.24 128.32 C6.56 120.63, 14.26 112.66, 32.56 90.58 M0.15 133.96 C12.68 122.95, 23.5 109.2, 32.96 96.22 M0.15 133.96 C7.06 126.48, 13.9 118.42, 32.96 96.22 M-0.11 140.36 C12.99 125.31, 26.86 112.18, 32.69 102.62 M-0.11 140.36 C7.95 131.69, 16.28 122.47, 32.69 102.62 M4.22 141.47 C13.62 132.22, 19.1 121.67, 32.43 109.02 M4.22 141.47 C11.75 133.95, 18.36 125.79, 32.43 109.02 M9.87 141.08 C15.26 133.94, 21 129.45, 32.83 114.66 M9.87 141.08 C15.83 134.56, 22.05 126.91, 32.83 114.66 M14.85 141.44 C18.45 137.31, 24.39 131.29, 32.57 121.06 M14.85 141.44 C18.77 137.21, 23 133.99, 32.57 121.06 M20.5 141.04 C25.65 136.01, 28.9 134.6, 32.96 126.7 M20.5 141.04 C24.5 135.67, 29.48 131.94, 32.96 126.7 M25.48 141.4 C26.52 139.47, 29.43 138.69, 32.7 133.1 M25.48 141.4 C27.1 139.23, 29.9 136.05, 32.7 133.1 M31.13 141.01 C31.43 140.36, 31.9 139.88, 32.44 139.5 M31.13 141.01 C31.46 140.48, 31.92 140.12, 32.44 139.5 M-0.27 140.55 C-0.27 140.55, -0.27 140.55, -0.27 140.55 M-0.27 140.55 C-0.27 140.55, -0.27 140.55, -0.27 140.55 M6.12 140.81 C4.28 139.54, 2.99 138.17, 0.09 135.56 M6.12 140.81 C4.36 139.59, 2.85 138.32, 0.09 135.56 M12.52 141.07 C8.36 137.44, 3.01 131.81, -0.31 129.92 M12.52 141.07 C7.85 136.97, 4.38 134.06, -0.31 129.92 M18.16 140.68 C16.58 136.2, 9.07 134.46, 0.05 124.93 M18.16 140.68 C13.67 136.09, 8.21 131.67, 0.05 124.93 M24.56 140.94 C16.1 132.93, 7.72 127.59, -0.34 119.29 M24.56 140.94 C19.98 136.3, 13.84 130.83, -0.34 119.29 M30.2 140.54 C21.26 131.57, 8.54 124.51, 0.02 114.3 M30.2 140.54 C22.83 134.59, 17.64 127.8, 0.02 114.3 M32.07 136.87 C20.94 127.11, 8.79 116.9, 0.38 109.31 M32.07 136.87 C24.45 129.24, 15.17 122.51, 0.38 109.31 M31.68 131.22 C20.17 123.73, 13.7 112.57, -0.02 103.67 M31.68 131.22 C24.27 124.85, 16.07 116.09, -0.02 103.67 M32.04 126.24 C23.92 120.68, 18.3 113.65, 0.34 98.68 M32.04 126.24 C23.66 120.2, 16.54 112.43, 0.34 98.68 M31.65 120.59 C23.95 114.59, 20.13 111.56, -0.05 93.04 M31.65 120.59 C24.75 113.29, 16.21 107.33, -0.05 93.04 M32.01 115.61 C22.45 109.27, 17.77 103.22, 0.31 88.05 M32.01 115.61 C22.15 106.79, 11.31 97.43, 0.31 88.05 M32.37 110.62 C22.52 103.29, 10.07 91.89, -0.09 82.41 M32.37 110.62 C24.65 104.12, 16.66 97, -0.09 82.41 M31.97 104.98 C24.23 96.62, 16.84 89.83, 0.27 77.42 M31.97 104.98 C20.57 95.47, 10.05 85.01, 0.27 77.42 M32.33 99.99 C24.21 92.44, 20.18 88.1, -0.12 71.78 M32.33 99.99 C21.1 89.59, 11.68 81.55, -0.12 71.78 M31.94 94.35 C21.77 84.72, 13.83 81.08, 0.24 66.79 M31.94 94.35 C22.82 85.39, 13.52 78.83, 0.24 66.79 M32.3 89.36 C25.92 84.66, 18.64 77.14, -0.16 61.15 M32.3 89.36 C25.31 81.96, 16.12 74.45, -0.16 61.15 M31.9 83.72 C21.11 75.61, 13 64.79, 0.2 56.16 M31.9 83.72 C23.19 76.09, 15.79 68.38, 0.2 56.16 M32.26 78.73 C20.96 70.89, 12.48 61.13, -0.19 50.52 M32.26 78.73 C20.98 70.03, 10.16 61.14, -0.19 50.52 M31.87 73.09 C20.71 64.59, 11.52 58.19, 0.17 45.53 M31.87 73.09 C22.1 65.16, 12.39 56.21, 0.17 45.53 M32.23 68.1 C19.53 57.26, 9.37 48.41, -0.22 39.89 M32.23 68.1 C19.23 58.11, 8.92 47.74, -0.22 39.89 M31.83 62.46 C25.63 56.24, 15.31 50.4, 0.14 34.9 M31.83 62.46 C19.28 50.92, 7.37 40.58, 0.14 34.9 M32.19 57.47 C22.48 48.47, 14.45 41.6, -0.26 29.26 M32.19 57.47 C20.93 47.38, 8.89 37.76, -0.26 29.26 M31.8 51.83 C19.56 43.54, 11.07 33.63, 0.1 24.27 M31.8 51.83 C20.58 40.96, 8.23 29.98, 0.1 24.27 M32.16 46.84 C19.69 37.17, 8.69 27.04, -0.29 18.63 M32.16 46.84 C22.08 37.03, 11.75 28.95, -0.29 18.63 M31.76 41.2 C18.6 30.27, 4.69 20.52, 0.07 13.64 M31.76 41.2 C21.14 32.79, 10.68 22.29, 0.07 13.64 M32.12 36.21 C24 27.79, 12.77 21.15, -0.33 8 M32.12 36.21 C22.02 26.74, 10.66 17.77, -0.33 8 M31.73 30.57 C22.69 24.26, 14.41 15.91, 0.03 3.01 M31.73 30.57 C20.11 20.4, 7.38 9.37, 0.03 3.01 M32.09 25.58 C22.1 17.37, 11.76 10.02, 1.9 -0.66 M32.09 25.58 C23.49 17.71, 15.34 10.58, 1.9 -0.66 M31.69 19.94 C24.16 13.67, 18.67 6.69, 8.3 -0.4 M31.69 19.94 C27.55 16.46, 21.58 11.24, 8.3 -0.4 M32.06 14.95 C23.56 9.82, 18.29 5.4, 13.94 -0.8 M32.06 14.95 C27.36 9.5, 20.81 6.01, 13.94 -0.8 M31.66 9.31 C29.9 6, 24.42 2.89, 20.34 -0.53 M31.66 9.31 C29.44 7.1, 26.19 4.36, 20.34 -0.53 M32.02 4.32 C30.31 2.61, 28.22 0.65, 26.74 -0.27 M32.02 4.32 C30.28 2.84, 29.07 1.53, 26.74 -0.27" stroke="#a5d8ff" stroke-width="0.5" fill="none"></path><path d="M0 0 C8.74 0.93, 21.49 -0.64, 32 0 M0 0 C11.31 0.76, 21.12 -0.66, 32 0 M32 0 C31.73 36.1, 29.73 72.37, 32 140.79 M32 0 C32.59 48.93, 33 95.57, 32 140.79 M32 140.79 C23.59 140.63, 13.48 140.38, 0 140.79 M32 140.79 C22.46 141.15, 11.94 141.4, 0 140.79 M0 140.79 C1.18 104.68, -1.27 72.23, 0 0 M0 140.79 C-0.25 92.58, -0.1 41.67, 0 0" stroke="#1e1e1e" stroke-width="1" fill="none"></path></g><g stroke-linecap="round" transform="translate(230.2657092340196 269.71099143672654) rotate(0 16 20.3945042816365)"><path d="M0 0 C0 0, 0 0, 0 0 M0 0 C0 0, 0 0, 0 0 M-0.26 6.4 C1.76 4.14, 3.44 2.03, 4.99 0.36 M-0.26 6.4 C1.46 4.5, 3.46 2.25, 4.99 0.36 M0.13 12.04 C4.71 6.4, 8.76 2.25, 10.63 -0.03 M0.13 12.04 C3.7 7.71, 7.95 3.5, 10.63 -0.03 M-0.13 18.44 C5.55 12.46, 12 5.8, 15.62 0.33 M-0.13 18.44 C3.9 13.85, 7.9 9.03, 15.62 0.33 M0.27 24.08 C6.19 16.13, 13.24 9.89, 21.26 -0.07 M0.27 24.08 C6.19 17.25, 11.53 11.51, 21.26 -0.07 M0 30.48 C9.06 20.63, 18.23 11.52, 26.25 0.29 M0 30.48 C8.99 19.78, 18.56 9.06, 26.25 0.29 M-0.26 36.88 C12.1 23.58, 24.13 9.28, 31.89 -0.1 M-0.26 36.88 C11.18 23.55, 22.9 10.43, 31.89 -0.1 M1.45 41.01 C7.79 33.17, 13.55 26, 32.94 4.78 M1.45 41.01 C13.57 26.74, 25.6 13.34, 32.94 4.78 M7.09 40.62 C13.27 32.24, 20.24 25.92, 32.68 11.18 M7.09 40.62 C15.05 31.04, 23.86 21.59, 32.68 11.18 M12.08 40.98 C18.53 31.99, 26.14 24.34, 32.42 17.58 M12.08 40.98 C19.03 32.9, 26.83 23.52, 32.42 17.58 M17.72 40.58 C23.89 33.48, 29.84 26.6, 32.81 23.22 M17.72 40.58 C23.34 34.83, 28.58 28.14, 32.81 23.22 M22.71 40.94 C25.62 37.22, 29.45 32.48, 32.55 29.62 M22.71 40.94 C26.29 37.19, 29.82 32.89, 32.55 29.62 M27.7 41.3 C28.98 40.24, 30.23 38.83, 32.95 35.26 M27.7 41.3 C29.46 39.18, 31.6 37.02, 32.95 35.26 M0.18 40.95 C0.18 40.95, 0.18 40.95, 0.18 40.95 M0.18 40.95 C0.18 40.95, 0.18 40.95, 0.18 40.95 M5.82 40.55 C4.6 39.54, 2.53 37.77, -0.21 35.3 M5.82 40.55 C4.59 39.35, 3.13 38.07, -0.21 35.3 M12.22 40.81 C8.18 37.16, 3.68 33.47, 0.15 30.32 M12.22 40.81 C9.27 38.11, 6.25 36.13, 0.15 30.32 M18.62 41.07 C13.77 37.5, 9.27 32.24, -0.25 24.67 M18.62 41.07 C12.35 35.47, 5.76 29.45, -0.25 24.67 M24.26 40.68 C17.28 35.24, 10.6 30.31, 0.11 19.69 M24.26 40.68 C15.85 32.83, 6.24 25.5, 0.11 19.69 M30.66 40.94 C22.16 33.26, 15.34 26.2, -0.28 14.04 M30.66 40.94 C24.44 35.37, 17.23 29.49, -0.28 14.04 M31.78 36.61 C19.89 25.78, 8.69 15.92, 0.08 9.06 M31.78 36.61 C21.6 27.25, 10.34 17.43, 0.08 9.06 M32.14 31.62 C22.25 23.64, 12.11 15.05, -0.32 3.41 M32.14 31.62 C22.78 23.22, 13.06 14.82, -0.32 3.41 M31.74 25.98 C20.46 16.79, 10.75 6.37, 1.55 -0.26 M31.74 25.98 C21.51 16.94, 11.15 7.84, 1.55 -0.26 M32.1 20.99 C24.94 14.82, 16.37 6.28, 7.95 0 M32.1 20.99 C24.32 13.85, 16.28 7.38, 7.95 0 M31.71 15.35 C24.83 10.59, 18.87 3.28, 13.59 -0.39 M31.71 15.35 C28.36 12.03, 24.75 8.96, 13.59 -0.39 M32.07 10.36 C27.85 5.71, 23.07 2.1, 19.99 -0.13 M32.07 10.36 C29.15 7.96, 25.92 4.76, 19.99 -0.13 M31.67 4.72 C29.7 3.42, 28.17 1.54, 26.39 0.13 M31.67 4.72 C29.93 3.25, 27.98 1.5, 26.39 0.13" stroke="#a5d8ff" stroke-width="0.5" fill="none"></path><path d="M0 0 C7.48 -0.5, 14.64 -0.96, 32 0 M0 0 C9.81 -0.45, 19.05 -0.3, 32 0 M32 0 C31.14 8.86, 32.45 18.49, 32 40.79 M32 0 C32.11 14.47, 31.92 29.64, 32 40.79 M32 40.79 C21.56 40.52, 11.17 41.74, 0 40.79 M32 40.79 C24.53 41.31, 17.27 40.87, 0 40.79 M0 40.79 C-0.78 32.7, 0.38 23.55, 0 0 M0 40.79 C0.05 31.48, 0.19 23.24, 0 0" stroke="#1e1e1e" stroke-width="1" fill="none"></path></g><g stroke-linecap="round" transform="translate(299.0705181484009 294.6175261655562) rotate(0 16 7.941236917221659)"><path d="M0 0 C0 0, 0 0, 0 0 M0 0 C0 0, 0 0, 0 0 M-0.26 6.4 C1.53 4.25, 3.65 1.77, 4.99 0.36 M-0.26 6.4 C1.5 4.49, 3.26 2.53, 4.99 0.36 M0.13 12.04 C4.12 7.63, 8.09 3.47, 10.63 -0.03 M0.13 12.04 C2.71 9.53, 4.73 6.99, 10.63 -0.03 M1.84 16.17 C7.69 10.74, 11.69 5.16, 15.62 0.33 M1.84 16.17 C6.88 10.33, 12.71 3.72, 15.62 0.33 M6.83 16.53 C10.66 12.92, 14.42 7.66, 21.26 -0.07 M6.83 16.53 C10.84 12.3, 14.87 7.23, 21.26 -0.07 M12.47 16.14 C17.72 12.02, 21.75 5.78, 26.25 0.29 M12.47 16.14 C15.79 12.19, 19.4 8.61, 26.25 0.29 M17.46 16.5 C20.6 13.1, 23.98 9.74, 31.89 -0.1 M17.46 16.5 C20.5 13.13, 23.57 9.09, 31.89 -0.1 M23.1 16.11 C26.08 12, 31.05 7.48, 32.94 4.78 M23.1 16.11 C26.97 11.82, 30.49 7.53, 32.94 4.78 M28.09 16.47 C29.4 15.14, 30.99 13.45, 32.68 11.18 M28.09 16.47 C29.28 15.21, 30.33 13.92, 32.68 11.18 M-0.32 15.61 C-0.32 15.61, -0.32 15.61, -0.32 15.61 M-0.32 15.61 C-0.32 15.61, -0.32 15.61, -0.32 15.61 M6.08 15.87 C4.27 13.61, 1.98 12.08, 0.04 10.62 M6.08 15.87 C4.45 14.15, 2.62 12.82, 0.04 10.62 M12.48 16.13 C8.67 12.83, 6.1 9.8, -0.35 4.98 M12.48 16.13 C7.95 12.12, 2.84 8.39, -0.35 4.98 M18.12 15.74 C12.39 11.11, 6.39 4.1, 0.01 -0.01 M18.12 15.74 C13.95 12.09, 8.97 8.43, 0.01 -0.01 M24.52 16 C19.97 11.32, 14.59 7.41, 6.41 0.25 M24.52 16 C19 11, 13.21 6.42, 6.41 0.25 M30.16 15.6 C24.56 11.1, 19.05 7.28, 12.05 -0.14 M30.16 15.6 C24.3 10.16, 18.24 5.25, 12.05 -0.14 M32.03 11.93 C29.62 10.01, 25.38 6.88, 18.45 0.12 M32.03 11.93 C26.86 7.89, 21.78 2.99, 18.45 0.12 M31.64 6.28 C29.82 4.41, 28.39 3.44, 24.09 -0.28 M31.64 6.28 C29.76 4.46, 27.58 2.99, 24.09 -0.28 M32 1.3 C31.38 0.89, 30.98 0.41, 30.49 -0.01 M32 1.3 C31.46 0.87, 30.98 0.43, 30.49 -0.01" stroke="#a5d8ff" stroke-width="0.5" fill="none"></path><path d="M0 0 C10.94 -0.83, 21.41 1.01, 32 0 M0 0 C11.84 -0.07, 23.71 0.16, 32 0 M32 0 C32.27 5, 32.45 9.09, 32 15.88 M32 0 C31.98 5.68, 32.13 11.87, 32 15.88 M32 15.88 C22.84 16.81, 12.83 16.09, 0 15.88 M32 15.88 C20.21 16, 8.51 16.3, 0 15.88 M0 15.88 C0.45 12.2, -0.59 8.26, 0 0 M0 15.88 C0.13 9.82, -0.08 3.44, 0 0" stroke="#1e1e1e" stroke-width="1" fill="none"></path></g><g stroke-linecap="round" transform="translate(372.0094618818475 295.4342416745958) rotate(0 16 7.532879162702102)"><path d="M0 0 C0 0, 0 0, 0 0 M0 0 C0 0, 0 0, 0 0 M-0.26 6.4 C1.4 4.36, 2.77 2.76, 4.99 0.36 M-0.26 6.4 C1.97 3.99, 3.95 1.77, 4.99 0.36 M0.13 12.04 C2.67 9.68, 3.61 6.89, 10.63 -0.03 M0.13 12.04 C3.2 8.65, 6.12 5.41, 10.63 -0.03 M2.5 15.42 C6.85 10.67, 12.79 4.25, 15.62 0.33 M2.5 15.42 C7.47 9.78, 12.13 3.87, 15.62 0.33 M8.14 15.03 C11.19 11.23, 14.66 7.88, 21.26 -0.07 M8.14 15.03 C11.12 11.5, 13.92 8.6, 21.26 -0.07 M13.13 15.39 C17.66 10.38, 20.57 5.34, 26.25 0.29 M13.13 15.39 C17.06 11.25, 19.77 7.35, 26.25 0.29 M18.77 14.99 C23.9 9.86, 27.02 4.1, 31.89 -0.1 M18.77 14.99 C22.38 10.41, 27.24 5.58, 31.89 -0.1 M23.76 15.35 C26.93 12.22, 29.51 9.59, 32.94 4.78 M23.76 15.35 C25.7 13.01, 27.95 10.35, 32.94 4.78 M29.4 14.96 C30.24 14.19, 30.79 13.04, 32.68 11.18 M29.4 14.96 C30.33 13.88, 31.04 12.83, 32.68 11.18 M0.09 15.14 C0.09 15.14, 0.09 15.14, 0.09 15.14 M0.09 15.14 C0.09 15.14, 0.09 15.14, 0.09 15.14 M5.73 14.75 C4.43 13.38, 2.76 12.49, -0.31 9.5 M5.73 14.75 C3.74 12.94, 1.46 10.92, -0.31 9.5 M12.13 15.01 C8.4 11, 4.29 7.87, 0.05 4.51 M12.13 15.01 C7.26 11.33, 3.16 7.21, 0.05 4.51 M18.53 15.27 C12.24 8.37, 4.2 2.57, 0.41 -0.48 M18.53 15.27 C12.28 10.58, 6.56 4.72, 0.41 -0.48 M24.17 14.88 C19.11 10.57, 15.84 8.47, 6.81 -0.21 M24.17 14.88 C17.43 9.1, 11.01 3.91, 6.81 -0.21 M30.57 15.14 C22.81 9.56, 16.75 3.71, 12.45 -0.61 M30.57 15.14 C25.41 10.62, 19.15 5.9, 12.45 -0.61 M31.68 10.81 C26.72 7.21, 23.41 3.1, 18.85 -0.35 M31.68 10.81 C28.34 7.95, 25.16 5.3, 18.85 -0.35 M32.04 5.82 C29.64 3.66, 26.58 1.49, 24.49 -0.74 M32.04 5.82 C29.51 3.82, 27.31 1.44, 24.49 -0.74 M31.65 0.18 C31.45 0.01, 31.2 -0.18, 30.89 -0.48 M31.65 0.18 C31.45 0.01, 31.25 -0.17, 30.89 -0.48" stroke="#a5d8ff" stroke-width="0.5" fill="none"></path><path d="M0 0 C8.2 1.08, 17.14 0.51, 32 0 M0 0 C7.1 0.11, 14.94 -0.39, 32 0 M32 0 C32.53 4.23, 32.55 8.87, 32 15.07 M32 0 C32.09 3.29, 31.95 6.26, 32 15.07 M32 15.07 C22.45 15.47, 14.99 14.74, 0 15.07 M32 15.07 C19.25 15.34, 7.06 14.73, 0 15.07 M0 15.07 C-0.64 9.6, 0.71 4.32, 0 0 M0 15.07 C-0.1 11.86, 0.1 8.39, 0 0" stroke="#1e1e1e" stroke-width="1" fill="none"></path></g><g stroke-linecap="round" transform="translate(449.0825404343568 54.5) rotate(0 16 128)"><path d="M0 0 C0 0, 0 0, 0 0 M0 0 C0 0, 0 0, 0 0 M-0.26 6.4 C1.14 5.04, 3.75 2.28, 4.99 0.36 M-0.26 6.4 C2.03 3.56, 4.06 1.49, 4.99 0.36 M0.13 12.04 C3.26 7.46, 9.11 3.46, 10.63 -0.03 M0.13 12.04 C3.93 8.1, 8.33 3.64, 10.63 -0.03 M-0.13 18.44 C3.4 14.83, 6.71 10.19, 15.62 0.33 M-0.13 18.44 C4.15 12.39, 9.56 8.04, 15.62 0.33 M0.27 24.08 C7.19 16.04, 11.78 12.38, 21.26 -0.07 M0.27 24.08 C7.63 16.2, 15.07 9.09, 21.26 -0.07 M0 30.48 C8.11 19.44, 18.66 8.45, 26.25 0.29 M0 30.48 C10.16 19.83, 19.97 8.08, 26.25 0.29 M-0.26 36.88 C10.36 23.79, 22.08 11.72, 31.89 -0.1 M-0.26 36.88 C6.18 28.76, 12.07 21.44, 31.89 -0.1 M0.14 42.52 C13.11 26.45, 25.8 13.61, 32.94 4.78 M0.14 42.52 C8.17 31.95, 17.04 23.44, 32.94 4.78 M-0.12 48.92 C9.37 36.3, 22.16 24.35, 32.68 11.18 M-0.12 48.92 C10.93 34.99, 22.98 22.22, 32.68 11.18 M0.27 54.56 C10.08 43.02, 23.22 26.22, 32.42 17.58 M0.27 54.56 C12.81 40, 25.13 25.79, 32.42 17.58 M0.01 60.96 C12.97 48.89, 24.44 33.07, 32.81 23.22 M0.01 60.96 C10.94 47.9, 23.15 33.4, 32.81 23.22 M-0.25 67.36 C11.92 55.34, 23.78 40.4, 32.55 29.62 M-0.25 67.36 C7.2 59.49, 14.76 50.83, 32.55 29.62 M0.14 73 C10.73 59.99, 24.97 46.6, 32.95 35.26 M0.14 73 C6.43 64.07, 14.6 55.49, 32.95 35.26 M-0.12 79.4 C8.94 72.91, 14.33 62.3, 32.68 41.66 M-0.12 79.4 C9.4 70.49, 16.75 59.6, 32.68 41.66 M0.28 85.04 C9.43 76.37, 16.32 67.17, 32.42 48.06 M0.28 85.04 C12.85 71.78, 25.04 58.18, 32.42 48.06 M0.01 91.44 C7.59 81.03, 14.9 74.67, 32.82 53.7 M0.01 91.44 C7.93 82.94, 16.05 72.47, 32.82 53.7 M-0.25 97.84 C12.13 85.35, 23.24 70.89, 32.56 60.1 M-0.25 97.84 C7.71 87.7, 16.12 78.33, 32.56 60.1 M0.15 103.48 C13.65 88.68, 22.38 76.22, 32.95 65.74 M0.15 103.48 C8.18 93.31, 17.85 83.44, 32.95 65.74 M-0.11 109.88 C8.81 102.44, 13.9 94.08, 32.69 72.14 M-0.11 109.88 C11.08 95.1, 23.12 81.57, 32.69 72.14 M0.28 115.52 C13.39 103.07, 22.3 88.64, 32.43 78.54 M0.28 115.52 C10.71 104.4, 20.72 93.07, 32.43 78.54 M0.02 121.92 C9.77 110.13, 17.84 98.26, 32.82 84.18 M0.02 121.92 C11.06 108.94, 23.8 94.43, 32.82 84.18 M-0.24 128.32 C12.21 115.77, 24.28 102.81, 32.56 90.58 M-0.24 128.32 C11.38 116.21, 21.75 102.1, 32.56 90.58 M0.15 133.96 C12.25 120.85, 23.36 110.43, 32.96 96.22 M0.15 133.96 C11.83 120.96, 24.58 105.56, 32.96 96.22 M-0.11 140.36 C7.8 132.46, 14.65 125.28, 32.69 102.62 M-0.11 140.36 C12.17 125.17, 23.99 111.51, 32.69 102.62 M0.29 146 C9.03 137.51, 16.3 125.43, 32.43 109.02 M0.29 146 C10.03 134.29, 21.3 121.02, 32.43 109.02 M0.02 152.4 C11.73 140.51, 21.15 125.55, 32.83 114.66 M0.02 152.4 C7.24 145.3, 13.33 136.43, 32.83 114.66 M-0.24 158.8 C8.85 149.74, 19.94 137.68, 32.57 121.06 M-0.24 158.8 C5.78 151.51, 13.84 143.47, 32.57 121.06 M0.16 164.44 C6.49 156.91, 16.32 145.69, 32.96 126.7 M0.16 164.44 C10.56 153.34, 21.91 140.71, 32.96 126.7 M-0.1 170.84 C12.77 158.14, 21.94 145.98, 32.7 133.1 M-0.1 170.84 C11.53 156.31, 23.99 143.24, 32.7 133.1 M0.29 176.48 C10.41 163.61, 24.03 148.19, 32.44 139.5 M0.29 176.48 C10.47 163.25, 22.3 151.81, 32.44 139.5 M0.03 182.88 C13.17 169.33, 25.56 155.08, 32.83 145.14 M0.03 182.88 C7.09 174.38, 14.62 165.61, 32.83 145.14 M-0.23 189.27 C7.83 179.7, 17.25 170.28, 32.57 151.54 M-0.23 189.27 C13.12 174.83, 25.79 159.3, 32.57 151.54 M0.16 194.92 C11.07 180.98, 24.79 170.14, 32.97 157.18 M0.16 194.92 C8.01 186.83, 12.7 179.94, 32.97 157.18 M-0.1 201.32 C11.41 189.85, 20.98 179.15, 32.7 163.58 M-0.1 201.32 C11.34 188.11, 22.95 176.05, 32.7 163.58 M0.3 206.96 C9 199.44, 14.59 189.89, 32.44 169.98 M0.3 206.96 C11.78 194.41, 21.49 182.76, 32.44 169.98 M0.03 213.36 C6.14 205.61, 16.74 195.36, 32.84 175.62 M0.03 213.36 C13.35 198.74, 26.18 184.33, 32.84 175.62 M-0.23 219.75 C8.89 207.95, 14.67 198.9, 32.58 182.02 M-0.23 219.75 C9.02 208.38, 20.87 195.37, 32.58 182.02 M0.17 225.4 C10.4 216.95, 19.1 204.19, 32.31 188.42 M0.17 225.4 C6.41 217.18, 13.89 208.7, 32.31 188.42 M-0.09 231.8 C7.04 223.34, 16.76 212.12, 32.71 194.06 M-0.09 231.8 C5.88 223.8, 13.74 217.47, 32.71 194.06 M0.3 237.44 C10 226.65, 16.4 219.18, 32.45 200.46 M0.3 237.44 C7.8 228.01, 17.53 219.14, 32.45 200.46 M0.04 243.84 C12.32 232.85, 22.53 219.89, 32.84 206.1 M0.04 243.84 C11.23 232.44, 20.92 219.08, 32.84 206.1 M-0.22 250.23 C7.57 240.94, 14.83 231.15, 32.58 212.5 M-0.22 250.23 C8.13 240.17, 16.51 230.83, 32.58 212.5 M0.17 255.88 C11.23 242.81, 23.96 228.31, 32.32 218.9 M0.17 255.88 C6.55 247.56, 14.91 240.48, 32.32 218.9 M5.16 256.24 C13.44 244.43, 25.25 236.55, 32.71 224.54 M5.16 256.24 C11.86 246.79, 19.76 240.07, 32.71 224.54 M10.8 255.84 C17.84 247.09, 24.4 242.9, 32.45 230.94 M10.8 255.84 C16.14 250.82, 21.07 244.62, 32.45 230.94 M15.79 256.2 C21.73 250.89, 23.62 244.96, 32.85 236.58 M15.79 256.2 C20.85 250.57, 27.29 243.3, 32.85 236.58 M21.43 255.81 C24.06 251.99, 28.97 248.03, 32.59 242.98 M21.43 255.81 C25.04 252.15, 29.85 247.72, 32.59 242.98 M26.42 256.17 C27.94 254.22, 29.9 252.42, 32.32 249.38 M26.42 256.17 C27.79 253.96, 29.61 252.34, 32.32 249.38 M32.06 255.77 C32.28 255.58, 32.49 255.3, 32.72 255.02 M32.06 255.77 C32.25 255.5, 32.51 255.26, 32.72 255.02 M0.04 256.03 C0.04 256.03, 0.04 256.03, 0.04 256.03 M0.04 256.03 C0.04 256.03, 0.04 256.03, 0.04 256.03 M6.43 256.29 C3.56 254.19, 1.42 251.99, -0.36 250.39 M6.43 256.29 C4.56 254.88, 3.21 253.8, -0.36 250.39 M12.08 255.9 C7.37 251.82, 3.94 249.45, 0 245.4 M12.08 255.9 C7.76 251.64, 2.68 248.43, 0 245.4 M18.48 256.16 C14 253.7, 8.77 249.94, 0.36 240.41 M18.48 256.16 C15.04 252.58, 11.11 249.31, 0.36 240.41 M24.12 255.77 C14.21 249.54, 7.56 242.85, -0.03 234.77 M24.12 255.77 C16.91 248.21, 10 243.04, -0.03 234.77 M30.52 256.03 C22.28 247.69, 9.69 238.31, 0.33 229.78 M30.52 256.03 C20.49 247.36, 11.57 239.89, 0.33 229.78 M33.9 253.66 C21.6 244.51, 10.61 232.69, -0.07 224.14 M33.9 253.66 C26.33 246.81, 18.13 240.77, -0.07 224.14 M34.26 248.68 C27.01 241.87, 18.79 236.41, 0.29 219.15 M34.26 248.68 C21.84 237.4, 10.11 227.32, 0.29 219.15 M33.86 243.03 C26.15 237.33, 19.84 230.49, -0.1 213.51 M33.86 243.03 C22.71 233.39, 10.91 222.47, -0.1 213.51 M34.22 238.05 C28.94 230.81, 19.53 226.54, 0.26 208.52 M34.22 238.05 C23.52 228.17, 13.47 218.95, 0.26 208.52 M33.83 232.4 C24.58 223.78, 18.76 218.22, -0.14 202.88 M33.83 232.4 C26.02 225.41, 18.29 218.95, -0.14 202.88 M34.19 227.42 C27.27 219.94, 18.89 217.01, 0.22 197.89 M34.19 227.42 C24.48 219.13, 14.24 210.22, 0.22 197.89 M33.79 221.77 C20.33 211.38, 7.91 201.79, -0.17 192.25 M33.79 221.77 C22.82 212.7, 10.65 202.56, -0.17 192.25 M34.15 216.79 C24.53 206.19, 11.52 197.15, 0.19 187.26 M34.15 216.79 C24.17 206.91, 12.21 197.94, 0.19 187.26 M33.76 211.14 C20.81 199.79, 7.9 190.54, -0.2 181.62 M33.76 211.14 C22.42 199.96, 10.38 190.31, -0.2 181.62 M34.12 206.16 C25.41 197.75, 12.44 187.73, 0.16 176.63 M34.12 206.16 C23.34 195.72, 11.86 187.55, 0.16 176.63 M33.72 200.51 C25.53 195.59, 17.84 188.14, -0.24 170.99 M33.72 200.51 C22.16 190.61, 10.35 180.28, -0.24 170.99 M34.08 195.53 C22.76 187.29, 13.13 176.53, 0.12 166 M34.08 195.53 C26.65 187.88, 17.05 181.8, 0.12 166 M33.69 189.88 C23.82 180.47, 14.39 170.95, -0.27 160.36 M33.69 189.88 C24.96 181.85, 15.85 174.43, -0.27 160.36 M34.05 184.9 C23.11 173.49, 10.18 163.62, 0.09 155.37 M34.05 184.9 C25.85 178.08, 16.57 171.08, 0.09 155.37 M33.65 179.25 C24.82 169.22, 14.42 161.39, -0.31 149.73 M33.65 179.25 C26.35 172.19, 18.01 164.26, -0.31 149.73 M34.01 174.27 C27.78 167.89, 19.64 162.18, 0.05 144.74 M34.01 174.27 C24.6 165.06, 13.36 156.87, 0.05 144.74 M33.62 168.62 C20.72 156.48, 6.72 145.36, -0.34 139.1 M33.62 168.62 C24.45 161.26, 15.42 152.48, -0.34 139.1 M33.98 163.64 C20.6 152.42, 8.33 142.4, 0.02 134.11 M33.98 163.64 C25.21 157.1, 16.47 149.31, 0.02 134.11 M34.34 158.65 C25.3 152.6, 15.14 143.37, -0.38 128.47 M34.34 158.65 C22.48 148.3, 11.52 137.38, -0.38 128.47 M33.94 153.01 C25.72 145.47, 19.22 138.85, -0.02 123.48 M33.94 153.01 C22.95 144.14, 13.72 135.49, -0.02 123.48 M34.31 148.02 C28.68 143.15, 21.49 135.46, 0.34 118.5 M34.31 148.02 C23.6 138.68, 13.61 130.31, 0.34 118.5 M33.91 142.38 C26.45 134.07, 17.13 129.51, -0.05 112.85 M33.91 142.38 C21.35 131.5, 7.48 118.95, -0.05 112.85 M34.27 137.39 C22.16 127.39, 11.66 117.66, 0.31 107.87 M34.27 137.39 C26.92 130.91, 18.58 122.72, 0.31 107.87 M33.88 131.75 C20.24 120.53, 7.24 107.79, -0.09 102.22 M33.88 131.75 C21.44 120.05, 9.01 109.87, -0.09 102.22 M34.24 126.76 C28.22 120.52, 21.17 113.61, 0.27 97.24 M34.24 126.76 C20 114.49, 6.12 102.16, 0.27 97.24 M33.84 121.12 C25.02 113.19, 10.7 103.3, -0.12 91.59 M33.84 121.12 C26.56 115.54, 20.55 108.54, -0.12 91.59 M34.2 116.13 C23.85 106.94, 11.08 95.84, 0.24 86.61 M34.2 116.13 C22.15 106.14, 12.57 97.03, 0.24 86.61 M33.81 110.49 C27.52 105.54, 17.71 97.43, -0.15 80.96 M33.81 110.49 C26.54 104.08, 18.7 96.91, -0.15 80.96 M34.17 105.5 C22.83 94.08, 10.52 82.81, 0.21 75.98 M34.17 105.5 C21.66 95.51, 8.17 83.14, 0.21 75.98 M33.77 99.86 C28.17 93.17, 20.8 85.94, -0.19 70.33 M33.77 99.86 C26.49 92.46, 18.36 86.56, -0.19 70.33 M34.13 94.87 C26.59 90.42, 19.89 83.55, 0.17 65.35 M34.13 94.87 C23.43 86.5, 14.17 76.5, 0.17 65.35 M33.74 89.23 C23.35 79.22, 9.14 68.47, -0.22 59.7 M33.74 89.23 C26.25 83.01, 17.77 75.82, -0.22 59.7 M34.1 84.24 C21.79 74.84, 12.55 63.02, 0.14 54.72 M34.1 84.24 C22.38 73.79, 10.28 64.21, 0.14 54.72 M33.7 78.6 C23.15 67.49, 9.05 59.53, -0.26 49.07 M33.7 78.6 C22.53 69.02, 12.74 61.19, -0.26 49.07 M34.06 73.61 C22.33 60.71, 9.48 49.71, 0.1 44.09 M34.06 73.61 C22.97 65.03, 13.43 56.34, 0.1 44.09 M33.67 67.97 C23.42 59.48, 11.66 51.83, -0.29 38.44 M33.67 67.97 C24.34 59.84, 15.6 52.25, -0.29 38.44 M34.03 62.98 C26.15 55.68, 18.17 49.74, 0.07 33.46 M34.03 62.98 C25.9 54.52, 18 47.89, 0.07 33.46 M33.63 57.34 C27.51 52.14, 16.27 41.82, -0.33 27.81 M33.63 57.34 C25.39 48.47, 15.23 41.58, -0.33 27.81 M33.99 52.35 C24.62 43.21, 12.44 32.76, 0.03 22.83 M33.99 52.35 C23.47 45.14, 14.04 36.59, 0.03 22.83 M33.6 46.71 C26.77 40.08, 16.03 34.02, -0.36 17.18 M33.6 46.71 C19.13 35.49, 5.67 24.42, -0.36 17.18 M33.96 41.72 C25.91 37.85, 22.13 30.37, 0 12.2 M33.96 41.72 C22.76 32.85, 13.18 23.3, 0 12.2 M34.32 36.73 C19.59 24.64, 7.78 15.99, 0.36 7.21 M34.32 36.73 C26.56 30.02, 17.58 21.5, 0.36 7.21 M33.93 31.09 C19.1 20.1, 9.26 7.92, -0.04 1.57 M33.93 31.09 C24.43 24.15, 16.73 15.66, -0.04 1.57 M34.29 26.1 C26.31 18.78, 20.89 15.3, 1.83 -2.11 M34.29 26.1 C22.98 16.4, 9.91 4.84, 1.83 -2.11 M33.89 20.46 C29.22 15.99, 19.85 10.85, 8.23 -1.85 M33.89 20.46 C24.78 11.99, 15.72 4.45, 8.23 -1.85 M34.25 15.47 C28.27 10.88, 26.21 7.3, 13.87 -2.24 M34.25 15.47 C30.62 12.49, 26.54 7.15, 13.87 -2.24 M33.86 9.83 C30.46 4.24, 24.38 1.87, 20.27 -1.98 M33.86 9.83 C29.64 6.02, 23.95 1.29, 20.27 -1.98 M34.22 4.84 C33.03 2.78, 30.18 2.13, 25.91 -2.38 M34.22 4.84 C31.67 2.11, 27.98 -0.23, 25.91 -2.38" stroke="#b2f2bb" stroke-width="0.5" fill="none"></path><path d="M0 0 C8.25 0.44, 12.12 -1.14, 32 0 M0 0 C8.37 -0.92, 16.83 0.39, 32 0 M32 0 C34.47 90.33, 31.87 179.59, 32 256 M32 0 C32.45 65.47, 32.35 130.98, 32 256 M32 256 C20.51 255.12, 8.3 255.03, 0 256 M32 256 C21.89 255.52, 13.6 256.68, 0 256 M0 256 C3.27 176.51, 0.51 97.39, 0 0 M0 256 C0.67 161.23, 0.55 65.19, 0 0" stroke="#1e1e1e" stroke-width="1" fill="none"></path></g><g stroke-linecap="round" transform="translate(526.1556189868661 283.99876308277817) rotate(0 16 13.250618458610916)"><path d="M0 0 C0 0, 0 0, 0 0 M0 0 C0 0, 0 0, 0 0 M-0.26 6.4 C1.24 5.27, 2.04 4.18, 4.99 0.36 M-0.26 6.4 C0.98 4.78, 2.59 3.15, 4.99 0.36 M0.13 12.04 C3.22 9.11, 6.6 5.09, 10.63 -0.03 M0.13 12.04 C3.29 8.95, 6.19 5.11, 10.63 -0.03 M-0.13 18.44 C6.34 10.99, 12.3 5.14, 15.62 0.33 M-0.13 18.44 C4.41 12.98, 9.79 7.45, 15.62 0.33 M0.27 24.08 C6.09 16.58, 14.09 9.08, 21.26 -0.07 M0.27 24.08 C5.73 18.24, 11.57 11.81, 21.26 -0.07 M3.29 26.71 C9.39 19.56, 15.53 13.02, 26.25 0.29 M3.29 26.71 C10.22 19.2, 16.62 11.82, 26.25 0.29 M8.27 27.07 C15.65 18.3, 23.56 9.64, 31.89 -0.1 M8.27 27.07 C15.7 17.84, 23.51 9.92, 31.89 -0.1 M13.92 26.67 C18.32 20.95, 24.3 14.27, 32.94 4.78 M13.92 26.67 C19.65 19.61, 26.42 12.91, 32.94 4.78 M18.9 27.03 C23.58 22.03, 28.65 16.23, 32.68 11.18 M18.9 27.03 C21.97 22.95, 25.69 19.68, 32.68 11.18 M24.55 26.64 C27.81 23.47, 29.5 20.99, 32.42 17.58 M24.55 26.64 C26.71 24.15, 28.96 21.31, 32.42 17.58 M29.53 27 C30.58 26.13, 31.15 25, 32.81 23.22 M29.53 27 C30.64 25.75, 31.58 24.67, 32.81 23.22 M-0.29 26.25 C-0.29 26.25, -0.29 26.25, -0.29 26.25 M-0.29 26.25 C-0.29 26.25, -0.29 26.25, -0.29 26.25 M6.11 26.51 C5 25.58, 3.83 24.07, 0.07 21.26 M6.11 26.51 C3.76 24.52, 1.5 22.41, 0.07 21.26 M12.5 26.77 C10.08 24.29, 5.9 21.17, -0.33 15.62 M12.5 26.77 C9.17 23.43, 5.01 20.05, -0.33 15.62 M18.15 26.38 C11.6 21.42, 4.76 15.85, 0.03 10.63 M18.15 26.38 C11.98 21.2, 5.7 14.93, 0.03 10.63 M24.54 26.64 C15.89 19.26, 9.23 12.13, -0.36 4.99 M24.54 26.64 C18.49 20.98, 11.49 15.74, -0.36 4.99 M30.19 26.24 C20.4 18.04, 9.65 8.49, 0 0 M30.19 26.24 C19.47 16.49, 9.13 7.95, 0 0 M32.06 22.57 C21.79 13.49, 12.69 5.32, 4.89 -1.05 M32.06 22.57 C24.08 16.1, 16.28 8.61, 4.89 -1.05 M31.66 16.92 C27.82 13.04, 23.49 10.24, 11.29 -0.79 M31.66 16.92 C23.52 10.22, 15.96 3.88, 11.29 -0.79 M32.02 11.94 C28.79 9.13, 24.64 6.44, 17.68 -0.53 M32.02 11.94 C29.04 9.18, 25.89 6.24, 17.68 -0.53 M31.63 6.29 C28.07 3.22, 24.49 0.86, 23.33 -0.92 M31.63 6.29 C28.8 3.9, 25.58 1.32, 23.33 -0.92 M31.99 1.31 C31.51 0.97, 31.01 0.46, 29.72 -0.66 M31.99 1.31 C31.22 0.64, 30.3 -0.06, 29.72 -0.66" stroke="#b2f2bb" stroke-width="0.5" fill="none"></path><path d="M0 0 C11.94 -0.48, 24.85 -0.86, 32 0 M0 0 C9.89 0.36, 20.17 0.47, 32 0 M32 0 C31.17 7.5, 31.65 15.47, 32 26.5 M32 0 C31.86 9.11, 32.47 17.8, 32 26.5 M32 26.5 C22.45 25.9, 11.17 25.55, 0 26.5 M32 26.5 C20.88 26.64, 9.23 25.99, 0 26.5 M0 26.5 C-0.84 19.14, 0.59 10.91, 0 0 M0 26.5 C0.05 16.62, -0.25 7.04, 0 0" stroke="#1e1e1e" stroke-width="1" fill="none"></path></g><g stroke-linecap="round" transform="translate(601.8506525996881 302.3157944814466) rotate(0 16 4.092102759276941)"><path d="M0 0 C0 0, 0 0, 0 0 M0 0 C0 0, 0 0, 0 0 M-0.26 6.4 C1.01 5.31, 2.17 3.68, 4.99 0.36 M-0.26 6.4 C1.56 4.41, 3.42 2.02, 4.99 0.36 M3.41 8.27 C5.29 6.37, 7.13 4.23, 10.63 -0.03 M3.41 8.27 C5.67 5.67, 7.91 3.52, 10.63 -0.03 M8.4 8.63 C10.78 6.47, 12.29 4, 15.62 0.33 M8.4 8.63 C10.36 6.58, 11.86 4.65, 15.62 0.33 M14.04 8.23 C17.04 5.33, 19.16 2.22, 21.26 -0.07 M14.04 8.23 C16.72 5.55, 18.82 2.45, 21.26 -0.07 M19.03 8.59 C20.52 7.02, 22.43 4.09, 26.25 0.29 M19.03 8.59 C21.37 6.05, 23.74 2.96, 26.25 0.29 M24.02 8.95 C26.42 6.19, 28.03 4.95, 31.89 -0.1 M24.02 8.95 C26.31 6.65, 28.43 4.08, 31.89 -0.1 M29.66 8.56 C30.73 7.25, 31.82 6.15, 32.94 4.78 M29.66 8.56 C30.58 7.66, 31.37 6.62, 32.94 4.78 M-0.28 7.94 C-0.28 7.94, -0.28 7.94, -0.28 7.94 M-0.28 7.94 C-0.28 7.94, -0.28 7.94, -0.28 7.94 M6.12 8.2 C4.59 7.4, 3.58 6.22, 0.08 2.95 M6.12 8.2 C3.81 6.46, 1.84 4.51, 0.08 2.95 M12.52 8.46 C7.82 5.45, 4.61 1.32, 1.95 -0.72 M12.52 8.46 C10.08 6.65, 7.79 4.7, 1.95 -0.72 M18.16 8.07 C14.97 4.88, 12.31 2.89, 8.35 -0.46 M18.16 8.07 C15.1 5.48, 11.33 2.28, 8.35 -0.46 M24.56 8.33 C22.5 5.83, 20.45 4.02, 13.99 -0.85 M24.56 8.33 C22.07 6.04, 19.8 4.37, 13.99 -0.85 M30.2 7.94 C25.96 4.34, 22.39 1.14, 20.39 -0.59 M30.2 7.94 C26.31 4.38, 22.72 1.4, 20.39 -0.59 M32.07 4.26 C29.89 2.73, 28.09 0.38, 26.79 -0.33 M32.07 4.26 C30.26 2.49, 28.22 1.03, 26.79 -0.33" stroke="#b2f2bb" stroke-width="0.5" fill="none"></path><path d="M0 0 C10.43 -0.73, 21.67 -0.04, 32 0 M0 0 C7.02 0.26, 13.45 0.27, 32 0 M32 0 C31.78 2.79, 32.14 5.32, 32 8.18 M32 0 C32.19 2.31, 32.04 5.04, 32 8.18 M32 8.18 C23.89 7.23, 16.42 7.48, 0 8.18 M32 8.18 C24.57 7.86, 16.98 8.76, 0 8.18 M0 8.18 C0.32 5.61, 0.3 3.32, 0 0 M0 8.18 C-0.09 5.21, 0.04 2.26, 0 0" stroke="#1e1e1e" stroke-width="1" fill="none"></path></g><g transform="translate(326.4061782197805 10) rotate(0 51.31666564941406 12.5)"><text x="51.31666564941406" y="0" font-family="Virgil, Segoe UI Emoji" font-size="20px" fill="#1e1e1e" text-anchor="middle" style="white-space: pre;" direction="ltr" dominant-baseline="text-before-edge">Терафлопс</text></g><g transform="translate(53.39471135204076 336.76826963812755) rotate(336.3262257417932 49.88333511352539 10)"><text x="49.88333511352539" y="0" font-family="Virgil, Segoe UI Emoji" font-size="16px" fill="#1e1e1e" text-anchor="middle" style="white-space: pre;" direction="ltr" dominant-baseline="text-before-edge">Folding@Home</text></g><g transform="translate(128.50521143743936 341.5914269270347) rotate(336.3262257417932 44.266666412353516 10)"><text x="44.266666412353516" y="0" font-family="Virgil, Segoe UI Emoji" font-size="16px" fill="#1e1e1e" text-anchor="middle" style="white-space: pre;" direction="ltr" dominant-baseline="text-before-edge">AII BOINC</text></g><g transform="translate(209.74415440794564 338.14631457781525) rotate(336.3262257417932 35.96666717529297 10)"><text x="35.96666717529297" y="0" font-family="Virgil, Segoe UI Emoji" font-size="16px" fill="#1e1e1e" text-anchor="middle" style="white-space: pre;" direction="ltr" dominant-baseline="text-before-edge">PrimeGrid</text></g><g transform="translate(276.6252269765464 326.9694423219162) rotate(336.3262257417932 41.21666717529297 20)"><text x="41.21666717529297" y="0" font-family="Virgil, Segoe UI Emoji" font-size="16px" fill="#1e1e1e" text-anchor="middle" style="white-space: pre;" direction="ltr" dominant-baseline="text-before-edge">Collatz</text><text x="41.21666717529297" y="20" font-family="Virgil, Segoe UI Emoji" font-size="16px" fill="#1e1e1e" text-anchor="middle" style="white-space: pre;" direction="ltr" dominant-baseline="text-before-edge">Conjecture</text></g><g transform="translate(349.13163987964253 335.92673442988826) rotate(336.3262257417932 45.78333282470703 20)"><text x="45.78333282470703" y="0" font-family="Virgil, Segoe UI Emoji" font-size="16px" fill="#1e1e1e" text-anchor="middle" style="white-space: pre;" direction="ltr" dominant-baseline="text-before-edge">SETI@Home</text><text x="45.78333282470703" y="20" font-family="Virgil, Segoe UI Emoji" font-size="16px" fill="#1e1e1e" text-anchor="middle" style="white-space: pre;" direction="ltr" dominant-baseline="text-before-edge"></text></g><g transform="translate(417.83955287051594 335.7742216914917) rotate(336.3262257417932 44.38333511352539 30)"><text x="44.38333511352539" y="0" font-family="Virgil, Segoe UI Emoji" font-size="16px" fill="#1e1e1e" text-anchor="middle" style="white-space: pre;" direction="ltr" dominant-baseline="text-before-edge">K Computer</text><text x="44.38333511352539" y="20" font-family="Virgil, Segoe UI Emoji" font-size="16px" fill="#1e1e1e" text-anchor="middle" style="white-space: pre;" direction="ltr" dominant-baseline="text-before-edge">[RIKEN </text><text x="44.38333511352539" y="40" font-family="Virgil, Segoe UI Emoji" font-size="16px" fill="#1e1e1e" text-anchor="middle" style="white-space: pre;" direction="ltr" dominant-baseline="text-before-edge">AICS]</text></g><g transform="translate(507.9705025878711 333.17064455051104) rotate(336.3262257417932 32.13333511352539 20)"><text x="32.13333511352539" y="0" font-family="Virgil, Segoe UI Emoji" font-size="16px" fill="#1e1e1e" text-anchor="middle" style="white-space: pre;" direction="ltr" dominant-baseline="text-before-edge">Pleiades</text><text x="32.13333511352539" y="20" font-family="Virgil, Segoe UI Emoji" font-size="16px" fill="#1e1e1e" text-anchor="middle" style="white-space: pre;" direction="ltr" dominant-baseline="text-before-edge">[NASA]</text></g><g transform="translate(587.40438289966 328.8839969930523) rotate(336.3262257417932 39.29999923706055 30)"><text x="39.29999923706055" y="0" font-family="Virgil, Segoe UI Emoji" font-size="16px" fill="#1e1e1e" text-anchor="middle" style="white-space: pre;" direction="ltr" dominant-baseline="text-before-edge">Raptor</text><text x="39.29999923706055" y="20" font-family="Virgil, Segoe UI Emoji" font-size="16px" fill="#1e1e1e" text-anchor="middle" style="white-space: pre;" direction="ltr" dominant-baseline="text-before-edge">[USA </text><text x="39.29999923706055" y="40" font-family="Virgil, Segoe UI Emoji" font-size="16px" fill="#1e1e1e" text-anchor="middle" style="white-space: pre;" direction="ltr" dominant-baseline="text-before-edge">Air Force]</text></g><g transform="translate(20.438301500703346 298) rotate(0 6.883333206176758 12.5)"><text x="13.766666412353516" y="0" font-family="Virgil, Segoe UI Emoji" font-size="20px" fill="#1e1e1e" text-anchor="end" style="white-space: pre;" direction="ltr" dominant-baseline="text-before-edge">0</text></g><g transform="translate(10 41.5) rotate(0 27.950000762939453 12.5)"><text x="55.900001525878906" y="0" font-family="Virgil, Segoe UI Emoji" font-size="20px" fill="#1e1e1e" text-anchor="end" style="white-space: pre;" direction="ltr" dominant-baseline="text-before-edge">10,510</text></g><g stroke-linecap="round"><g transform="translate(67.84574022949892 322.5) rotate(0 309.3710889599356 0)"><path d="M0 0 C245.98 -1, 491.67 -1.04, 618.74 0 M0 0 C183.24 -1.66, 367.21 -1.2, 618.74 0" stroke="#1e1e1e" stroke-width="1" fill="none"></path></g></g><mask></mask><g stroke-linecap="round"><g transform="translate(68.94270941790728 322.5) rotate(0 0 -140)"><path d="M0 0 C0.01 -91.77, -1.35 -183.28, 0 -280 M0 0 C1.79 -99.46, 1.42 -200.29, 0 -280" stroke="#1e1e1e" stroke-width="1" fill="none"></path></g></g><mask></mask><g stroke-linecap="round"><g stroke-opacity="0.5" fill-opacity="0.5" transform="translate(69.22378516918616 54.5) rotate(0 310.06011142978014 0)"><path d="M0 0 C156.37 0.6, 313.25 0.8, 620.12 0" stroke="#1e1e1e" stroke-width="1.5" fill="none" stroke-dasharray="1.5 7"></path></g></g><mask></mask><g transform="translate(75.4249873977833 121.40575203698654) rotate(0 25.08333396911621 12.5)"><text x="0" y="0" font-family="Virgil, Segoe UI Emoji" font-size="20px" fill="#1971c2" text-anchor="start" style="white-space: pre;" direction="ltr" dominant-baseline="text-before-edge">6572</text></g><g transform="translate(138.53652956869428 140.60078564980768) rotate(0 38.79999923706055 12.5)"><text x="0" y="0" font-family="Virgil, Segoe UI Emoji" font-size="20px" fill="#1971c2" text-anchor="start" style="white-space: pre;" direction="ltr" dominant-baseline="text-before-edge">5779,92</text></g><g transform="translate(284.1060098950138 266.69189763125223) rotate(0 30.933332443237305 12.5)"><text x="0" y="0" font-family="Virgil, Segoe UI Emoji" font-size="20px" fill="#1971c2" text-anchor="start" style="white-space: pre;" direction="ltr" dominant-baseline="text-before-edge">651,05</text></g><g transform="translate(210.38060562170995 241.88708871686958) rotate(0 37.29999923706055 12.5)"><text x="0" y="0" font-family="Virgil, Segoe UI Emoji" font-size="20px" fill="#1971c2" text-anchor="start" style="white-space: pre;" direction="ltr" dominant-baseline="text-before-edge">1674,58</text></g><g transform="translate(357.30785626370016 268.758965040784) rotate(0 32.63333511352539 12.5)"><text x="0" y="0" font-family="Virgil, Segoe UI Emoji" font-size="20px" fill="#1971c2" text-anchor="start" style="white-space: pre;" direction="ltr" dominant-baseline="text-before-edge">618,52</text></g><g transform="translate(518.8769329225561 256.3565605835929) rotate(0 24.899999618530273 12.5)"><text x="0" y="0" font-family="Virgil, Segoe UI Emoji" font-size="20px" fill="#2f9e44" text-anchor="start" style="white-space: pre;" direction="ltr" dominant-baseline="text-before-edge">1088</text></g><g transform="translate(596.9198063655094 274.27114479953616) rotate(0 20.03333282470703 12.5)"><text x="0" y="0" font-family="Virgil, Segoe UI Emoji" font-size="20px" fill="#2f9e44" text-anchor="start" style="white-space: pre;" direction="ltr" dominant-baseline="text-before-edge">336</text></g><g stroke-linecap="round" transform="translate(567.3870308663663 75.24124655744163) rotate(0 14.813983101645135 14.813983101645135)"><path d="M0 0 C0 0, 0 0, 0 0 M0 0 C0 0, 0 0, 0 0 M-0.26 6.4 C1.34 4.61, 2.92 3.5, 4.99 0.36 M-0.26 6.4 C1.58 4.47, 3.26 2.04, 4.99 0.36 M0.13 12.04 C2.9 8.02, 6.04 4.73, 10.63 -0.03 M0.13 12.04 C3.41 8.21, 6.35 4.65, 10.63 -0.03 M-0.13 18.44 C4.08 14.1, 6.35 10.22, 15.62 0.33 M-0.13 18.44 C3.41 14.81, 6.64 11.26, 15.62 0.33 M0.27 24.08 C6.29 17.9, 12.02 11.8, 21.26 -0.07 M0.27 24.08 C8.16 14.47, 16.68 5.71, 21.26 -0.07 M0.66 29.72 C10.81 19.43, 21.02 7.07, 26.25 0.29 M0.66 29.72 C9.76 19.16, 18.73 9.75, 26.25 0.29 M5.65 30.08 C10.84 24.31, 15.05 18.15, 29.92 2.16 M5.65 30.08 C15.3 19, 24.64 8.2, 29.92 2.16 M11.29 29.69 C15.48 25.33, 20.11 19.21, 30.32 7.8 M11.29 29.69 C14.75 25.67, 18.82 20.88, 30.32 7.8 M16.28 30.05 C19.37 26.09, 23.38 23.28, 30.06 14.2 M16.28 30.05 C20.3 26.12, 24.16 21.35, 30.06 14.2 M21.92 29.66 C24.08 27.1, 27.28 23.92, 29.79 20.6 M21.92 29.66 C23.76 27.38, 25.49 25.35, 29.79 20.6 M26.91 30.02 C27.99 28.95, 28.78 27.87, 30.19 26.24 M26.91 30.02 C27.99 28.9, 28.95 27.75, 30.19 26.24 M-0.33 29.34 C-0.33 29.34, -0.33 29.34, -0.33 29.34 M-0.33 29.34 C-0.33 29.34, -0.33 29.34, -0.33 29.34 M6.07 29.6 C4.13 28.04, 2.7 26.09, 0.03 24.35 M6.07 29.6 C4.03 27.86, 2.02 26.1, 0.03 24.35 M12.47 29.86 C8.18 26.68, 4.55 22.64, -0.36 18.71 M12.47 29.86 C9.05 26.81, 5.38 23.9, -0.36 18.71 M18.11 29.47 C12.43 24.09, 7.61 21.55, 0 13.72 M18.11 29.47 C14.54 25.63, 10.23 23.04, 0 13.72 M24.51 29.73 C20.05 24.37, 13.59 21.08, 0.36 8.74 M24.51 29.73 C17.25 23.49, 9.88 16.75, 0.36 8.74 M30.15 29.34 C22.56 23.71, 16.73 16.51, -0.04 3.09 M30.15 29.34 C22.43 22.37, 13.7 15.64, -0.04 3.09 M29.75 23.69 C23.58 19.54, 18.41 14.45, 1.83 -0.58 M29.75 23.69 C20.46 15.92, 12.46 8.38, 1.83 -0.58 M30.11 18.71 C21.78 11.92, 13.56 3.98, 8.23 -0.32 M30.11 18.71 C24.95 13.79, 20.21 9.8, 8.23 -0.32 M29.72 13.06 C24.87 8.53, 19.32 4.76, 13.87 -0.71 M29.72 13.06 C25.18 9.48, 21.57 6.06, 13.87 -0.71 M30.08 8.08 C27.65 6.8, 26.38 4.95, 20.27 -0.45 M30.08 8.08 C28.18 6.46, 25.93 4.15, 20.27 -0.45 M29.69 2.43 C28.82 1.69, 27.81 0.72, 26.67 -0.19 M29.69 2.43 C28.59 1.48, 27.57 0.61, 26.67 -0.19" stroke="#4dabf7" stroke-width="0.5" fill="none"></path><path d="M0 0 C7.81 0.85, 15.44 0.92, 29.63 0 M0 0 C8.52 0.33, 16.85 -0.29, 29.63 0 M29.63 0 C30.02 6.2, 28.8 14.27, 29.63 29.63 M29.63 0 C29.52 9.1, 30.04 18.11, 29.63 29.63 M29.63 29.63 C19.03 30.56, 9.59 30.11, 0 29.63 M29.63 29.63 C23.71 29.94, 17.63 29.45, 0 29.63 M0 29.63 C-0.33 24.29, 0.44 16.66, 0 0 M0 29.63 C-0.15 18.47, 0.09 7.18, 0 0" stroke="transparent" stroke-width="1" fill="none"></path></g><g stroke-linecap="round" transform="translate(567.7315421012881 120.37221833222202) rotate(0 14.813983101645135 14.813983101645135)"><path d="M0 0 C0 0, 0 0, 0 0 M0 0 C0 0, 0 0, 0 0 M-0.26 6.4 C1.42 4.47, 3.09 2.54, 4.99 0.36 M-0.26 6.4 C1.39 4.5, 3.04 2.6, 4.99 0.36 M0.13 12.04 C3.95 7.65, 7.77 3.25, 10.63 -0.03 M0.13 12.04 C3.3 8.39, 6.48 4.75, 10.63 -0.03 M-0.13 18.44 C4.59 13.01, 9.31 7.58, 15.62 0.33 M-0.13 18.44 C4.74 12.84, 9.61 7.24, 15.62 0.33 M0.27 24.08 C5.99 17.5, 11.71 10.91, 21.26 -0.07 M0.27 24.08 C7.08 16.24, 13.89 8.4, 21.26 -0.07 M0.66 29.72 C9.24 19.86, 17.82 9.99, 26.25 0.29 M0.66 29.72 C7.1 22.32, 13.53 14.92, 26.25 0.29 M5.65 30.08 C11.84 22.96, 18.03 15.84, 29.92 2.16 M5.65 30.08 C10.52 24.48, 15.39 18.88, 29.92 2.16 M11.29 29.69 C17.37 22.69, 23.46 15.69, 30.32 7.8 M11.29 29.69 C18.6 21.28, 25.91 12.88, 30.32 7.8 M16.28 30.05 C21.02 24.6, 25.76 19.15, 30.06 14.2 M16.28 30.05 C19.16 26.73, 22.04 23.42, 30.06 14.2 M21.92 29.66 C24.09 27.16, 26.25 24.67, 29.79 20.6 M21.92 29.66 C24.85 26.29, 27.78 22.92, 29.79 20.6 M26.91 30.02 C27.57 29.26, 28.22 28.5, 30.19 26.24 M26.91 30.02 C28.06 28.69, 29.21 27.37, 30.19 26.24 M-0.33 29.34 C-0.33 29.34, -0.33 29.34, -0.33 29.34 M-0.33 29.34 C-0.33 29.34, -0.33 29.34, -0.33 29.34 M6.07 29.6 C4.18 27.96, 2.28 26.31, 0.03 24.35 M6.07 29.6 C3.96 27.77, 1.86 25.94, 0.03 24.35 M12.47 29.86 C9.55 27.33, 6.63 24.79, -0.36 18.71 M12.47 29.86 C8.86 26.73, 5.25 23.59, -0.36 18.71 M18.11 29.47 C14.48 26.32, 10.86 23.17, 0 13.72 M18.11 29.47 C13.65 25.59, 9.19 21.71, 0 13.72 M24.51 29.73 C17.05 23.25, 9.6 16.78, 0.36 8.74 M24.51 29.73 C18.67 24.65, 12.83 19.58, 0.36 8.74 M30.15 29.34 C23.93 23.93, 17.7 18.52, -0.04 3.09 M30.15 29.34 C23.79 23.8, 17.42 18.27, -0.04 3.09 M29.75 23.69 C20.55 15.69, 11.35 7.69, 1.83 -0.58 M29.75 23.69 C20.39 15.55, 11.03 7.41, 1.83 -0.58 M30.11 18.71 C23.44 12.91, 16.77 7.11, 8.23 -0.32 M30.11 18.71 C22.89 12.42, 15.66 6.14, 8.23 -0.32 M29.72 13.06 C24.12 8.2, 18.53 3.33, 13.87 -0.71 M29.72 13.06 C24.39 8.43, 19.07 3.8, 13.87 -0.71 M30.08 8.08 C27.16 5.54, 24.24 3, 20.27 -0.45 M30.08 8.08 C27.98 6.25, 25.87 4.42, 20.27 -0.45 M29.69 2.43 C28.57 1.46, 27.45 0.49, 26.67 -0.19 M29.69 2.43 C28.96 1.8, 28.24 1.17, 26.67 -0.19" stroke="#69db7c" stroke-width="0.5" fill="none"></path><path d="M0 0 C11.03 0, 22.07 0, 29.63 0 M0 0 C11.73 0, 23.46 0, 29.63 0 M29.63 0 C29.63 11.56, 29.63 23.13, 29.63 29.63 M29.63 0 C29.63 9.01, 29.63 18.02, 29.63 29.63 M29.63 29.63 C18.48 29.63, 7.33 29.63, 0 29.63 M29.63 29.63 C20.39 29.63, 11.15 29.63, 0 29.63 M0 29.63 C0 22.84, 0 16.06, 0 0 M0 29.63 C0 22.35, 0 15.08, 0 0" stroke="transparent" stroke-width="1" fill="none"></path></g><g transform="translate(600.4601094188756 122.78379697667424) rotate(0 66.83333587646484 10)"><text x="0" y="0" font-family="Virgil, Segoe UI Emoji" font-size="16px" fill="#1e1e1e" text-anchor="start" style="white-space: pre;" direction="ltr" dominant-baseline="text-before-edge">Суперкомпьютеры</text></g><g transform="translate(599.7710869490329 77.99733643681702) rotate(0 98.58333587646484 10)"><text x="0" y="0" font-family="Virgil, Segoe UI Emoji" font-size="16px" fill="#1e1e1e" text-anchor="start" style="white-space: pre;" direction="ltr" dominant-baseline="text-before-edge">Распределенные системы</text></g></svg>